<svg viewBox="0 0 235 40" fill="none" xmlns="http://www.w3.org/2000/svg">
<path d="M45.484 32V13.1H50.812V16.304H51.028C51.364 15.296 51.94 14.444 52.756 13.748C53.572 13.028 54.688 12.668 56.104 12.668C57.4 12.668 58.504 12.992 59.416 13.64C60.328 14.288 60.988 15.236 61.396 16.484H61.504C61.672 15.956 61.924 15.464 62.26 15.008C62.62 14.528 63.052 14.12 63.556 13.784C64.06 13.448 64.624 13.184 65.248 12.992C65.872 12.776 66.544 12.668 67.264 12.668C69.088 12.668 70.48 13.316 71.44 14.612C72.424 15.908 72.916 17.756 72.916 20.156V32H67.588V20.588C67.588 18.188 66.724 16.988 64.996 16.988C64.204 16.988 63.484 17.216 62.836 17.672C62.188 18.128 61.864 18.824 61.864 19.76V32H56.536V20.588C56.536 18.188 55.672 16.988 53.944 16.988C53.56 16.988 53.176 17.048 52.792 17.168C52.432 17.264 52.096 17.432 51.784 17.672C51.496 17.912 51.256 18.212 51.064 18.572C50.896 18.908 50.812 19.304 50.812 19.76V32H45.484ZM91.62 32C90.66 32 89.856 31.7 89.208 31.1C88.584 30.5 88.188 29.696 88.02 28.688H87.804C87.516 29.912 86.88 30.848 85.896 31.496C84.912 32.12 83.7 32.432 82.26 32.432C80.364 32.432 78.912 31.928 77.904 30.92C76.896 29.912 76.392 28.58 76.392 26.924C76.392 24.932 77.112 23.456 78.552 22.496C80.016 21.512 81.996 21.02 84.492 21.02H87.48V19.832C87.48 18.92 87.24 18.2 86.76 17.672C86.28 17.12 85.476 16.844 84.348 16.844C83.292 16.844 82.452 17.072 81.828 17.528C81.204 17.984 80.688 18.5 80.28 19.076L77.112 16.268C77.88 15.14 78.84 14.264 79.992 13.64C81.168 12.992 82.752 12.668 84.744 12.668C87.432 12.668 89.448 13.256 90.792 14.432C92.136 15.608 92.808 17.324 92.808 19.58V27.86H94.572V32H91.62ZM84.24 28.724C85.128 28.724 85.884 28.532 86.508 28.148C87.156 27.764 87.48 27.14 87.48 26.276V24.044H84.888C82.8 24.044 81.756 24.752 81.756 26.168V26.708C81.756 27.404 81.972 27.92 82.404 28.256C82.836 28.568 83.448 28.724 84.24 28.724ZM104.561 32C102.713 32 101.309 31.532 100.349 30.596C99.4131 29.66 98.9451 28.292 98.9451 26.492V17.24H96.2811V13.1H97.6131C98.3331 13.1 98.8251 12.932 99.0891 12.596C99.3531 12.236 99.4851 11.732 99.4851 11.084V7.988H104.273V13.1H108.017V17.24H104.273V27.86H107.729V32H104.561ZM119.21 32.432C117.794 32.432 116.534 32.204 115.43 31.748C114.326 31.268 113.402 30.608 112.658 29.768C111.914 28.904 111.35 27.86 110.966 26.636C110.582 25.412 110.39 24.044 110.39 22.532C110.39 21.02 110.582 19.664 110.966 18.464C111.35 17.24 111.914 16.196 112.658 15.332C113.402 14.468 114.326 13.808 115.43 13.352C116.534 12.896 117.794 12.668 119.21 12.668C121.13 12.668 122.726 13.1 123.998 13.964C125.294 14.828 126.218 16.04 126.77 17.6L122.45 19.472C122.282 18.752 121.934 18.14 121.406 17.636C120.878 17.132 120.146 16.88 119.21 16.88C118.13 16.88 117.314 17.24 116.762 17.96C116.21 18.656 115.934 19.604 115.934 20.804V24.332C115.934 25.532 116.21 26.48 116.762 27.176C117.314 27.872 118.13 28.22 119.21 28.22C120.17 28.22 120.926 27.968 121.478 27.464C122.054 26.936 122.474 26.252 122.738 25.412L126.878 27.212C126.254 29.012 125.282 30.332 123.962 31.172C122.666 32.012 121.082 32.432 119.21 32.432ZM130.175 5.36H135.503V16.304H135.719C136.055 15.32 136.643 14.468 137.483 13.748C138.323 13.028 139.487 12.668 140.975 12.668C142.919 12.668 144.383 13.316 145.367 14.612C146.375 15.908 146.879 17.756 146.879 20.156V32H141.551V20.588C141.551 19.364 141.359 18.464 140.975 17.888C140.591 17.288 139.907 16.988 138.923 16.988C138.491 16.988 138.071 17.048 137.663 17.168C137.255 17.264 136.883 17.432 136.547 17.672C136.235 17.912 135.983 18.212 135.791 18.572C135.599 18.908 135.503 19.304 135.503 19.76V32H130.175V5.36ZM165.589 32C164.629 32 163.825 31.7 163.177 31.1C162.553 30.5 162.157 29.696 161.989 28.688H161.773C161.485 29.912 160.849 30.848 159.865 31.496C158.881 32.12 157.669 32.432 156.229 32.432C154.333 32.432 152.881 31.928 151.873 30.92C150.865 29.912 150.361 28.58 150.361 26.924C150.361 24.932 151.081 23.456 152.521 22.496C153.985 21.512 155.965 21.02 158.461 21.02H161.449V19.832C161.449 18.92 161.209 18.2 160.729 17.672C160.249 17.12 159.445 16.844 158.317 16.844C157.261 16.844 156.421 17.072 155.797 17.528C155.173 17.984 154.657 18.5 154.249 19.076L151.081 16.268C151.849 15.14 152.809 14.264 153.961 13.64C155.137 12.992 156.721 12.668 158.713 12.668C161.401 12.668 163.417 13.256 164.761 14.432C166.105 15.608 166.777 17.324 166.777 19.58V27.86H168.541V32H165.589ZM158.209 28.724C159.097 28.724 159.853 28.532 160.477 28.148C161.125 27.764 161.449 27.14 161.449 26.276V24.044H158.857C156.769 24.044 155.725 24.752 155.725 26.168V26.708C155.725 27.404 155.941 27.92 156.373 28.256C156.805 28.568 157.417 28.724 158.209 28.724ZM175.564 32.396C174.484 32.396 173.68 32.132 173.152 31.604C172.648 31.052 172.396 30.356 172.396 29.516V28.796C172.396 27.956 172.648 27.272 173.152 26.744C173.68 26.192 174.484 25.916 175.564 25.916C176.644 25.916 177.436 26.192 177.94 26.744C178.468 27.272 178.732 27.956 178.732 28.796V29.516C178.732 30.356 178.468 31.052 177.94 31.604C177.436 32.132 176.644 32.396 175.564 32.396ZM190.754 32.432C189.362 32.432 188.114 32.204 187.01 31.748C185.93 31.292 185.006 30.632 184.238 29.768C183.494 28.904 182.918 27.86 182.51 26.636C182.102 25.412 181.898 24.044 181.898 22.532C181.898 21.02 182.102 19.652 182.51 18.428C182.918 17.204 183.494 16.172 184.238 15.332C185.006 14.468 185.93 13.808 187.01 13.352C188.114 12.896 189.362 12.668 190.754 12.668C192.146 12.668 193.382 12.896 194.462 13.352C195.566 13.808 196.49 14.468 197.234 15.332C198.002 16.172 198.59 17.204 198.998 18.428C199.406 19.652 199.61 21.02 199.61 22.532C199.61 24.044 199.406 25.412 198.998 26.636C198.59 27.86 198.002 28.904 197.234 29.768C196.49 30.632 195.566 31.292 194.462 31.748C193.382 32.204 192.146 32.432 190.754 32.432ZM190.754 28.22C191.81 28.22 192.626 27.896 193.202 27.248C193.778 26.6 194.066 25.676 194.066 24.476V20.624C194.066 19.424 193.778 18.5 193.202 17.852C192.626 17.204 191.81 16.88 190.754 16.88C189.698 16.88 188.882 17.204 188.306 17.852C187.73 18.5 187.442 19.424 187.442 20.624V24.476C187.442 25.676 187.73 26.6 188.306 27.248C188.882 27.896 189.698 28.22 190.754 28.22ZM203.406 32V13.1H208.734V17.204H208.914C209.01 16.676 209.178 16.172 209.418 15.692C209.658 15.188 209.97 14.744 210.354 14.36C210.762 13.976 211.242 13.676 211.794 13.46C212.346 13.22 212.994 13.1 213.738 13.1H214.674V18.068H213.342C211.782 18.068 210.618 18.272 209.85 18.68C209.106 19.088 208.734 19.844 208.734 20.948V32H203.406ZM234.964 33.368C234.964 34.376 234.784 35.264 234.424 36.032C234.088 36.8 233.524 37.448 232.732 37.976C231.94 38.528 230.884 38.936 229.564 39.2C228.268 39.488 226.66 39.632 224.74 39.632C223.108 39.632 221.716 39.524 220.564 39.308C219.436 39.116 218.512 38.828 217.792 38.444C217.096 38.084 216.58 37.628 216.244 37.076C215.932 36.548 215.776 35.936 215.776 35.24C215.776 34.184 216.088 33.356 216.712 32.756C217.336 32.156 218.2 31.784 219.304 31.64V31.244C218.392 31.076 217.708 30.692 217.252 30.092C216.796 29.468 216.568 28.748 216.568 27.932C216.568 27.428 216.664 26.996 216.856 26.636C217.072 26.252 217.336 25.928 217.648 25.664C217.984 25.376 218.368 25.148 218.8 24.98C219.232 24.812 219.664 24.68 220.096 24.584V24.44C218.944 23.912 218.092 23.192 217.54 22.28C216.988 21.344 216.712 20.264 216.712 19.04C216.712 17.12 217.372 15.584 218.692 14.432C220.036 13.256 222.076 12.668 224.812 12.668C226.06 12.668 227.128 12.788 228.016 13.028V12.308C228.016 11.3 228.256 10.58 228.736 10.148C229.24 9.692 229.948 9.464 230.86 9.464H233.848V13.424H229.672V13.64C230.776 14.168 231.592 14.9 232.12 15.836C232.648 16.748 232.912 17.816 232.912 19.04C232.912 20.936 232.24 22.46 230.896 23.612C229.576 24.74 227.548 25.304 224.812 25.304C223.588 25.304 222.472 25.172 221.464 24.908C220.912 25.268 220.636 25.772 220.636 26.42C220.636 26.876 220.804 27.236 221.14 27.5C221.5 27.74 222.088 27.86 222.904 27.86H228.376C230.68 27.86 232.348 28.34 233.38 29.3C234.436 30.26 234.964 31.616 234.964 33.368ZM229.96 34.088C229.96 33.536 229.744 33.116 229.312 32.828C228.88 32.54 228.124 32.396 227.044 32.396H220.564C220.324 32.636 220.144 32.9 220.024 33.188C219.928 33.5 219.88 33.8 219.88 34.088C219.88 34.784 220.18 35.288 220.78 35.6C221.38 35.936 222.4 36.104 223.84 36.104H226C227.44 36.104 228.46 35.936 229.06 35.6C229.66 35.288 229.96 34.784 229.96 34.088ZM224.812 21.812C225.868 21.812 226.648 21.596 227.152 21.164C227.68 20.708 227.944 20.06 227.944 19.22V18.788C227.944 17.948 227.68 17.312 227.152 16.88C226.648 16.424 225.868 16.196 224.812 16.196C223.756 16.196 222.964 16.424 222.436 16.88C221.932 17.312 221.68 17.948 221.68 18.788V19.22C221.68 20.06 221.932 20.708 222.436 21.164C222.964 21.596 223.756 21.812 224.812 21.812Z" fill="#FF9090"/>
<circle cx="18.5" cy="20.5" r="18.5" fill="#FFAAAA"/>
</svg>